<svg width="209" height="62" viewBox="0 0 209 62" fill="none" xmlns="http://www.w3.org/2000/svg">
<path d="M0.632812 15.3789V12.3906H15.8555V15.3789H9.77344V37H6.67969V15.3789H0.632812ZM17.8945 37.1055V12.1797H20.6719V19.5273C21.5391 18.7539 22.6055 18.3555 23.8711 18.332V21.0742C22.8164 21.0742 21.9258 21.543 21.1992 22.4805C20.8711 22.9258 20.707 23.3359 20.707 23.7109V37.1055H17.8945ZM25.5234 21.0742V18.332C27.7031 18.332 29.3438 19.1172 30.4453 20.6875C31.0312 21.5312 31.3242 22.4336 31.3242 23.3945V37.1055H28.5117V23.7109C28.5117 22.8203 28.1133 22.1055 27.3164 21.5664C26.8008 21.2383 26.2031 21.0742 25.5234 21.0742ZM33.9258 31.7969V23.0781C33.9492 22 34.4648 20.9336 35.4727 19.8789C36.6914 18.6367 38.168 18.0039 39.9023 17.9805V20.7578C38.7773 20.7578 37.8984 21.25 37.2656 22.2344C37.0078 22.6562 36.8789 23.043 36.8789 23.3945V25.7852H44.7539V23.3945C44.7539 22.3398 44.2148 21.5664 43.1367 21.0742C42.6445 20.8398 42.1406 20.7227 41.625 20.7227V17.9805C43.2422 17.9805 44.6836 18.5547 45.9492 19.7031C47.0039 20.7109 47.543 21.8242 47.5664 23.043V28.6328H36.8789V31.7969C36.8789 32.4531 37.2539 33.0625 38.0039 33.625C38.6133 34.0469 39.2578 34.2578 39.9375 34.2578V37C37.8047 37 36.1289 36.1328 34.9102 34.3984C34.2539 33.4844 33.9258 32.6172 33.9258 31.7969ZM41.625 37V34.2227C43.0312 34.2227 44.0859 33.6133 44.7891 32.3945C44.9297 32.1367 45.0352 31.8906 45.1055 31.6562L47.6016 32.5703C47.1797 34.1875 46.2188 35.4062 44.7188 36.2266C43.7578 36.7422 42.7266 37 41.625 37ZM58.8867 37V12.3906H61.9453V33.9766H72.1055V37H58.8867ZM74.0742 31.7969V23.1133C74.0742 22.0117 74.5664 20.9336 75.5508 19.8789C76.7695 18.6133 78.293 17.9805 80.1211 17.9805V20.8281C78.7383 20.8281 77.7773 21.4023 77.2383 22.5508C77.0742 22.9023 76.9922 23.2539 76.9922 23.6055V31.3398C76.9922 32.207 77.3906 32.9453 78.1875 33.5547C78.75 33.9766 79.3945 34.1875 80.1211 34.1875V37.0352C77.8945 37.0352 76.1719 36.1328 74.9531 34.3281C74.3672 33.4375 74.0742 32.5938 74.0742 31.7969ZM81.6328 37.0352V34.1875C82.875 34.1875 83.7656 33.625 84.3047 32.5C84.4922 32.125 84.5859 31.7617 84.5859 31.4102V23.6055C84.5859 22.6445 84.1758 21.8828 83.3555 21.3203C82.8398 20.9922 82.2539 20.8281 81.5977 20.8281V17.9805C83.7539 17.9805 85.418 18.8594 86.5898 20.6172C87.1758 21.4844 87.4688 22.3164 87.4688 23.1133V31.7969C87.4688 32.9453 86.9766 34.0586 85.9922 35.1367C84.8438 36.3789 83.3906 37.0117 81.6328 37.0352ZM89.6133 22.4102V19.5273H91.9336V17.4883C91.9336 16.1758 92.3672 14.9805 93.2344 13.9023C94.1953 12.7773 95.4375 12.2031 96.9609 12.1797H98.2617L97.5938 15.0273H96.9258C95.5898 15.0977 94.9102 15.918 94.8867 17.4883V19.5625L97.2773 19.5273V22.4102H94.8867V37H91.9336V22.4102H89.6133ZM99.2461 21.0391V18.1914H101.566V12.1094H104.555V18.1914H106.805V21.0742H104.555V31.1641C104.555 32.8281 105.234 33.7539 106.594 33.9414C106.852 33.9883 107.109 34.0117 107.367 34.0117H107.859L108.527 37H107.262C104.379 36.9766 102.609 35.8984 101.953 33.7656C101.719 32.9688 101.602 31.9844 101.602 30.8125L101.566 21.0391H99.2461ZM118.582 37V12.3906H121.641V37H118.582ZM123.398 37V33.9766C125.789 33.9766 127.395 33.6016 128.215 32.8516C128.918 32.1953 129.27 31.2695 129.27 30.0742V19.3164C129.27 17.2539 128.086 16.0117 125.719 15.5898C125.062 15.4727 124.289 15.4141 123.398 15.4141V12.3906C127.57 12.3906 130.301 13.6094 131.59 16.0469C132.105 16.9844 132.363 18.0742 132.363 19.3164V30.0742C132.363 34.4805 129.68 36.7891 124.312 37C124.008 37 123.703 37 123.398 37ZM135.352 15.3789C135.352 14.6523 135.691 14.1367 136.371 13.832C136.605 13.7383 136.84 13.6914 137.074 13.6914C137.777 13.6914 138.293 14.0195 138.621 14.6758C138.715 14.9102 138.762 15.1445 138.762 15.3789C138.762 16.082 138.434 16.5977 137.777 16.9258C137.543 17.0195 137.309 17.0664 137.074 17.0664C136.348 17.0664 135.82 16.7383 135.492 16.082C135.398 15.8477 135.352 15.6133 135.352 15.3789ZM135.598 37V18.4727H138.551V37H135.598ZM141.082 32.0078L143.859 31.4805C143.859 32.5352 144.41 33.3672 145.512 33.9766C146.051 34.2344 146.566 34.375 147.059 34.3984V37.1758C144.785 37.1758 143.086 36.3555 141.961 34.7148C141.375 33.8477 141.082 32.9453 141.082 32.0078ZM141.258 23.3594C141.258 21.2266 142.23 19.6445 144.176 18.6133C145.113 18.1211 146.051 17.875 146.988 17.875V20.6172C145.91 20.6172 145.078 21.0625 144.492 21.9531C144.188 22.3984 144.035 22.8672 144.035 23.3594C144.035 24.1094 144.621 24.7188 145.793 25.1875C146.684 25.5625 148.406 26.0547 150.961 26.6641C152.555 26.9922 153.691 27.7773 154.371 29.0195C154.723 29.6758 154.898 30.4141 154.898 31.2344C154.898 33.4844 153.996 35.1484 152.191 36.2266C151.137 36.8594 149.93 37.1758 148.57 37.1758V34.3984C149.648 34.3984 150.551 34.0234 151.277 33.2734C151.793 32.7344 152.051 32.1016 152.051 31.375C152.051 30.4375 151.125 29.6875 149.273 29.125C148.805 28.9844 148.055 28.7852 147.023 28.5273C145.922 28.2695 145.125 28.0586 144.633 27.8945C142.852 27.1914 141.773 26.125 141.398 24.6953C141.305 24.2734 141.258 23.8281 141.258 23.3594ZM148.535 20.6523V17.875C150.551 17.875 152.18 18.625 153.422 20.125C154.195 21.0859 154.582 22.0938 154.582 23.1484L151.805 23.6055C151.805 22.3164 151.102 21.4141 149.695 20.8984C149.273 20.7344 148.887 20.6523 148.535 20.6523ZM156.199 21.0391V18.1914H158.52V12.1094H161.508V18.1914H163.758V21.0742H161.508V31.1641C161.508 32.8281 162.188 33.7539 163.547 33.9414C163.805 33.9883 164.062 34.0117 164.32 34.0117H164.812L165.48 37H164.215C161.332 36.9766 159.562 35.8984 158.906 33.7656C158.672 32.9688 158.555 31.9844 158.555 30.8125L158.52 21.0391H156.199ZM167.133 37V17.9805H170.121V20.582C170.73 19.5508 171.645 18.7891 172.863 18.2969C173.52 18.0391 174.164 17.9102 174.797 17.9102H175.43L174.727 20.793C173.438 20.8164 172.289 21.5078 171.281 22.8672C170.508 23.9453 170.121 25.0586 170.121 26.207V37H167.133ZM177.574 15.3789C177.574 14.6523 177.914 14.1367 178.594 13.832C178.828 13.7383 179.062 13.6914 179.297 13.6914C180 13.6914 180.516 14.0195 180.844 14.6758C180.938 14.9102 180.984 15.1445 180.984 15.3789C180.984 16.082 180.656 16.5977 180 16.9258C179.766 17.0195 179.531 17.0664 179.297 17.0664C178.57 17.0664 178.043 16.7383 177.715 16.082C177.621 15.8477 177.574 15.6133 177.574 15.3789ZM177.82 37V18.4727H180.773V37H177.82ZM183.973 31.7969V23.1836C183.973 22.3398 184.254 21.4844 184.816 20.6172C185.941 18.8594 187.629 17.9805 189.879 17.9805V20.793C189.199 20.793 188.59 20.9688 188.051 21.3203C187.277 21.8594 186.891 22.5039 186.891 23.2539V31.7969C186.891 32.125 186.984 32.4531 187.172 32.7812C187.711 33.7188 188.613 34.1875 189.879 34.1875V37C188.027 37 186.539 36.4023 185.414 35.207C184.453 34.1758 183.973 33.0391 183.973 31.7969ZM191.461 20.8281V17.9805C192.68 17.9805 193.781 18.3438 194.766 19.0703C196.172 20.1484 196.875 21.543 196.875 23.2539L194.133 24.3086V23.4648C194.109 23.0664 194.016 22.6797 193.852 22.3047C193.406 21.3203 192.609 20.8281 191.461 20.8281ZM191.461 37.0352V34.1875C191.836 34.1875 192.199 34.1289 192.551 34.0117C193.746 33.6133 194.402 32.7578 194.52 31.4453L194.555 31.375C194.555 31.3281 194.555 31.2812 194.555 31.2344C194.555 31.1641 194.555 31.1055 194.555 31.0586C194.555 31.0117 194.555 30.9531 194.555 30.8828C194.555 30.8125 194.555 30.7656 194.555 30.7422C194.555 30.7188 194.555 30.6953 194.555 30.6719L197.297 31.6914C197.297 32.9336 196.805 34.082 195.82 35.1367C194.578 36.4258 193.125 37.0586 191.461 37.0352ZM198.773 21.0391V18.1914H201.094V12.1094H204.082V18.1914H206.332V21.0742H204.082V31.1641C204.082 32.8281 204.762 33.7539 206.121 33.9414C206.379 33.9883 206.637 34.0117 206.895 34.0117H207.387L208.055 37H206.789C203.906 36.9766 202.137 35.8984 201.48 33.7656C201.246 32.9688 201.129 31.9844 201.129 30.8125L201.094 21.0391H198.773Z" fill="white"/>
<path d="M37.068 58V49.48H40.668C41.036 49.48 41.372 49.556 41.676 49.708C41.98 49.86 42.244 50.068 42.468 50.332C42.7 50.588 42.876 50.876 42.996 51.196C43.124 51.508 43.188 51.828 43.188 52.156C43.188 52.564 43.108 52.948 42.948 53.308C42.796 53.668 42.576 53.972 42.288 54.22C42.008 54.468 41.676 54.632 41.292 54.712L43.38 58H42.432L40.428 54.856H37.908V58H37.068ZM37.908 54.112H40.692C41.028 54.112 41.32 54.02 41.568 53.836C41.816 53.652 42.008 53.412 42.144 53.116C42.28 52.812 42.348 52.492 42.348 52.156C42.348 51.812 42.268 51.496 42.108 51.208C41.956 50.912 41.748 50.676 41.484 50.5C41.228 50.316 40.94 50.224 40.62 50.224H37.908V54.112ZM48.6923 58.12C48.2443 58.12 47.8283 58.036 47.4443 57.868C47.0603 57.692 46.7283 57.456 46.4483 57.16C46.1683 56.856 45.9483 56.508 45.7883 56.116C45.6363 55.724 45.5603 55.304 45.5603 54.856C45.5603 54.272 45.6923 53.736 45.9563 53.248C46.2283 52.76 46.6003 52.372 47.0723 52.084C47.5443 51.788 48.0803 51.64 48.6803 51.64C49.2963 51.64 49.8323 51.788 50.2883 52.084C50.7523 52.38 51.1163 52.772 51.3803 53.26C51.6443 53.74 51.7763 54.268 51.7763 54.844C51.7763 54.908 51.7763 54.972 51.7763 55.036C51.7763 55.092 51.7723 55.136 51.7643 55.168H46.4123C46.4523 55.616 46.5763 56.016 46.7843 56.368C47.0003 56.712 47.2763 56.988 47.6123 57.196C47.9563 57.396 48.3283 57.496 48.7283 57.496C49.1363 57.496 49.5203 57.392 49.8803 57.184C50.2483 56.976 50.5043 56.704 50.6483 56.368L51.3563 56.56C51.2283 56.856 51.0323 57.124 50.7683 57.364C50.5043 57.604 50.1923 57.792 49.8323 57.928C49.4803 58.056 49.1003 58.12 48.6923 58.12ZM46.3883 54.58H51.0083C50.9763 54.124 50.8523 53.724 50.6363 53.38C50.4283 53.036 50.1523 52.768 49.8083 52.576C49.4723 52.376 49.1003 52.276 48.6923 52.276C48.2843 52.276 47.9123 52.376 47.5763 52.576C47.2403 52.768 46.9643 53.04 46.7483 53.392C46.5403 53.736 46.4203 54.132 46.3883 54.58ZM56.5273 58.12C56.0153 58.12 55.5393 58.036 55.0993 57.868C54.6593 57.7 54.2793 57.444 53.9593 57.1L54.2953 56.524C54.6473 56.852 54.9993 57.092 55.3513 57.244C55.7113 57.388 56.0913 57.46 56.4913 57.46C56.9793 57.46 57.3753 57.364 57.6793 57.172C57.9833 56.972 58.1353 56.688 58.1353 56.32C58.1353 56.072 58.0593 55.884 57.9073 55.756C57.7633 55.62 57.5513 55.512 57.2713 55.432C56.9993 55.344 56.6713 55.252 56.2873 55.156C55.8553 55.036 55.4913 54.912 55.1953 54.784C54.9073 54.648 54.6873 54.48 54.5353 54.28C54.3913 54.072 54.3193 53.804 54.3193 53.476C54.3193 53.068 54.4193 52.732 54.6193 52.468C54.8273 52.196 55.1073 51.992 55.4593 51.856C55.8193 51.712 56.2193 51.64 56.6593 51.64C57.1393 51.64 57.5633 51.716 57.9313 51.868C58.2993 52.02 58.5993 52.232 58.8313 52.504L58.4353 53.056C58.2113 52.8 57.9433 52.612 57.6313 52.492C57.3273 52.364 56.9873 52.3 56.6113 52.3C56.3553 52.3 56.1113 52.336 55.8793 52.408C55.6473 52.472 55.4553 52.584 55.3033 52.744C55.1593 52.896 55.0873 53.108 55.0873 53.38C55.0873 53.604 55.1433 53.78 55.2553 53.908C55.3673 54.028 55.5353 54.132 55.7593 54.22C55.9833 54.3 56.2593 54.388 56.5873 54.484C57.0593 54.612 57.4713 54.744 57.8233 54.88C58.1753 55.008 58.4473 55.176 58.6393 55.384C58.8313 55.592 58.9273 55.884 58.9273 56.26C58.9273 56.844 58.7073 57.3 58.2673 57.628C57.8273 57.956 57.2473 58.12 56.5273 58.12ZM61.7161 58V51.748H62.5321V58H61.7161ZM61.7161 50.44V49.24H62.5321V50.44H61.7161ZM65.3494 54.892C65.3494 54.3 65.4694 53.76 65.7094 53.272C65.9574 52.776 66.2974 52.38 66.7294 52.084C67.1614 51.788 67.6534 51.64 68.2054 51.64C68.7254 51.64 69.1894 51.78 69.5974 52.06C70.0134 52.332 70.3374 52.664 70.5694 53.056V49.24H71.3854V57.016C71.3854 57.128 71.4094 57.212 71.4574 57.268C71.5054 57.316 71.5774 57.344 71.6734 57.352V58C71.5134 58.024 71.3894 58.032 71.3014 58.024C71.1334 58.016 70.9854 57.948 70.8574 57.82C70.7294 57.692 70.6654 57.552 70.6654 57.4V56.788C70.4174 57.196 70.0814 57.52 69.6574 57.76C69.2334 58 68.7934 58.12 68.3374 58.12C67.9054 58.12 67.5054 58.032 67.1374 57.856C66.7774 57.68 66.4614 57.44 66.1894 57.136C65.9254 56.832 65.7174 56.488 65.5654 56.104C65.4214 55.712 65.3494 55.308 65.3494 54.892ZM70.5694 55.852V53.92C70.4654 53.632 70.2974 53.372 70.0654 53.14C69.8334 52.9 69.5694 52.712 69.2734 52.576C68.9854 52.432 68.6974 52.36 68.4094 52.36C68.0734 52.36 67.7694 52.432 67.4974 52.576C67.2254 52.712 66.9894 52.9 66.7894 53.14C66.5974 53.38 66.4494 53.652 66.3454 53.956C66.2414 54.26 66.1894 54.572 66.1894 54.892C66.1894 55.228 66.2454 55.548 66.3574 55.852C66.4774 56.156 66.6454 56.428 66.8614 56.668C67.0774 56.9 67.3254 57.08 67.6054 57.208C67.8854 57.336 68.1894 57.4 68.5174 57.4C68.7254 57.4 68.9414 57.36 69.1654 57.28C69.3894 57.2 69.6014 57.092 69.8014 56.956C70.0094 56.812 70.1814 56.644 70.3174 56.452C70.4534 56.26 70.5374 56.06 70.5694 55.852ZM77.3742 58.12C76.9262 58.12 76.5102 58.036 76.1262 57.868C75.7422 57.692 75.4102 57.456 75.1302 57.16C74.8502 56.856 74.6302 56.508 74.4702 56.116C74.3182 55.724 74.2422 55.304 74.2422 54.856C74.2422 54.272 74.3742 53.736 74.6382 53.248C74.9102 52.76 75.2822 52.372 75.7542 52.084C76.2262 51.788 76.7622 51.64 77.3622 51.64C77.9782 51.64 78.5142 51.788 78.9702 52.084C79.4342 52.38 79.7982 52.772 80.0622 53.26C80.3262 53.74 80.4582 54.268 80.4582 54.844C80.4582 54.908 80.4582 54.972 80.4582 55.036C80.4582 55.092 80.4542 55.136 80.4462 55.168H75.0942C75.1342 55.616 75.2582 56.016 75.4662 56.368C75.6822 56.712 75.9582 56.988 76.2942 57.196C76.6382 57.396 77.0102 57.496 77.4102 57.496C77.8182 57.496 78.2022 57.392 78.5622 57.184C78.9302 56.976 79.1862 56.704 79.3302 56.368L80.0382 56.56C79.9102 56.856 79.7142 57.124 79.4502 57.364C79.1862 57.604 78.8742 57.792 78.5142 57.928C78.1622 58.056 77.7822 58.12 77.3742 58.12ZM75.0702 54.58H79.6902C79.6582 54.124 79.5342 53.724 79.3182 53.38C79.1102 53.036 78.8342 52.768 78.4902 52.576C78.1542 52.376 77.7822 52.276 77.3742 52.276C76.9662 52.276 76.5942 52.376 76.2582 52.576C75.9222 52.768 75.6462 53.04 75.4302 53.392C75.2222 53.736 75.1022 54.132 75.0702 54.58ZM88.4132 58H87.5972V54.508C87.5972 53.772 87.4892 53.236 87.2732 52.9C87.0572 52.556 86.7172 52.384 86.2532 52.384C85.9332 52.384 85.6172 52.464 85.3052 52.624C84.9932 52.776 84.7172 52.988 84.4772 53.26C84.2452 53.524 84.0772 53.828 83.9732 54.172V58H83.1572V51.748H83.9012V53.164C84.0692 52.86 84.2892 52.596 84.5612 52.372C84.8332 52.14 85.1412 51.96 85.4852 51.832C85.8292 51.704 86.1852 51.64 86.5532 51.64C86.8972 51.64 87.1892 51.704 87.4292 51.832C87.6692 51.96 87.8612 52.144 88.0052 52.384C88.1492 52.616 88.2532 52.9 88.3172 53.236C88.3812 53.564 88.4132 53.932 88.4132 54.34V58ZM94.5347 57.7C94.4707 57.724 94.3707 57.768 94.2347 57.832C94.0987 57.896 93.9347 57.952 93.7427 58C93.5507 58.048 93.3427 58.072 93.1187 58.072C92.8867 58.072 92.6667 58.028 92.4587 57.94C92.2587 57.852 92.0987 57.72 91.9787 57.544C91.8587 57.36 91.7987 57.136 91.7987 56.872V52.396H90.9347V51.748H91.7987V49.636H92.6147V51.748H94.0547V52.396H92.6147V56.644C92.6307 56.868 92.7107 57.036 92.8547 57.148C93.0067 57.26 93.1787 57.316 93.3707 57.316C93.5947 57.316 93.7987 57.28 93.9827 57.208C94.1667 57.128 94.2787 57.072 94.3187 57.04L94.5347 57.7ZM96.9942 58V51.748H97.8102V58H96.9942ZM96.9942 50.44V49.24H97.8102V50.44H96.9942ZM100.543 56.2C100.543 55.808 100.655 55.472 100.879 55.192C101.103 54.904 101.411 54.684 101.803 54.532C102.203 54.372 102.663 54.292 103.183 54.292C103.487 54.292 103.803 54.316 104.131 54.364C104.459 54.412 104.751 54.484 105.007 54.58V54.052C105.007 53.524 104.851 53.104 104.539 52.792C104.227 52.48 103.795 52.324 103.243 52.324C102.907 52.324 102.575 52.388 102.247 52.516C101.927 52.636 101.591 52.816 101.239 53.056L100.927 52.48C101.335 52.2 101.735 51.992 102.127 51.856C102.519 51.712 102.919 51.64 103.327 51.64C104.095 51.64 104.703 51.86 105.151 52.3C105.599 52.74 105.823 53.348 105.823 54.124V57.016C105.823 57.128 105.847 57.212 105.895 57.268C105.943 57.316 106.019 57.344 106.123 57.352V58C106.035 58.008 105.959 58.016 105.895 58.024C105.831 58.032 105.783 58.032 105.751 58.024C105.551 58.016 105.399 57.952 105.295 57.832C105.191 57.712 105.135 57.584 105.127 57.448L105.115 56.992C104.835 57.352 104.471 57.632 104.023 57.832C103.575 58.024 103.119 58.12 102.655 58.12C102.255 58.12 101.891 58.036 101.563 57.868C101.243 57.692 100.991 57.46 100.807 57.172C100.631 56.876 100.543 56.552 100.543 56.2ZM104.731 56.68C104.819 56.568 104.887 56.46 104.935 56.356C104.983 56.252 105.007 56.16 105.007 56.08V55.168C104.735 55.064 104.451 54.984 104.155 54.928C103.867 54.872 103.575 54.844 103.279 54.844C102.695 54.844 102.223 54.96 101.863 55.192C101.503 55.424 101.323 55.74 101.323 56.14C101.323 56.372 101.383 56.592 101.503 56.8C101.623 57 101.799 57.168 102.031 57.304C102.263 57.432 102.535 57.496 102.847 57.496C103.239 57.496 103.603 57.42 103.939 57.268C104.283 57.116 104.547 56.92 104.731 56.68ZM109.063 49.24H109.879V56.584C109.879 56.896 109.935 57.1 110.047 57.196C110.159 57.292 110.295 57.34 110.455 57.34C110.599 57.34 110.743 57.324 110.887 57.292C111.031 57.26 111.155 57.228 111.259 57.196L111.403 57.856C111.251 57.92 111.063 57.972 110.839 58.012C110.623 58.052 110.435 58.072 110.275 58.072C109.907 58.072 109.611 57.964 109.387 57.748C109.171 57.532 109.063 57.236 109.063 56.86V49.24ZM117.475 53.68C117.475 53.16 117.563 52.652 117.739 52.156C117.923 51.652 118.187 51.196 118.531 50.788C118.875 50.372 119.299 50.044 119.803 49.804C120.307 49.556 120.879 49.432 121.519 49.432C122.279 49.432 122.927 49.608 123.463 49.96C124.007 50.304 124.407 50.748 124.663 51.292L124.003 51.7C123.819 51.324 123.587 51.028 123.307 50.812C123.027 50.588 122.727 50.428 122.407 50.332C122.095 50.236 121.783 50.188 121.471 50.188C120.959 50.188 120.507 50.292 120.115 50.5C119.723 50.7 119.391 50.972 119.119 51.316C118.855 51.652 118.655 52.032 118.519 52.456C118.383 52.872 118.315 53.296 118.315 53.728C118.315 54.2 118.395 54.652 118.555 55.084C118.715 55.516 118.939 55.9 119.227 56.236C119.515 56.564 119.851 56.828 120.235 57.028C120.627 57.22 121.051 57.316 121.507 57.316C121.827 57.316 122.155 57.26 122.491 57.148C122.827 57.036 123.139 56.864 123.427 56.632C123.723 56.4 123.959 56.1 124.135 55.732L124.831 56.092C124.655 56.516 124.383 56.876 124.015 57.172C123.647 57.468 123.235 57.692 122.779 57.844C122.331 57.996 121.891 58.072 121.459 58.072C120.875 58.072 120.339 57.948 119.851 57.7C119.363 57.444 118.939 57.108 118.579 56.692C118.227 56.268 117.955 55.796 117.763 55.276C117.571 54.748 117.475 54.216 117.475 53.68ZM130.202 58.12C129.754 58.12 129.338 58.036 128.954 57.868C128.578 57.692 128.25 57.456 127.97 57.16C127.698 56.856 127.486 56.512 127.334 56.128C127.182 55.736 127.106 55.324 127.106 54.892C127.106 54.444 127.182 54.028 127.334 53.644C127.486 53.252 127.702 52.908 127.982 52.612C128.262 52.308 128.59 52.072 128.966 51.904C129.35 51.728 129.766 51.64 130.214 51.64C130.662 51.64 131.074 51.728 131.45 51.904C131.826 52.072 132.154 52.308 132.434 52.612C132.714 52.908 132.93 53.252 133.082 53.644C133.234 54.028 133.31 54.444 133.31 54.892C133.31 55.324 133.234 55.736 133.082 56.128C132.93 56.512 132.714 56.856 132.434 57.16C132.162 57.456 131.834 57.692 131.45 57.868C131.074 58.036 130.658 58.12 130.202 58.12ZM127.934 54.904C127.934 55.368 128.034 55.792 128.234 56.176C128.442 56.552 128.718 56.852 129.062 57.076C129.406 57.292 129.786 57.4 130.202 57.4C130.618 57.4 130.998 57.288 131.342 57.064C131.686 56.84 131.962 56.536 132.17 56.152C132.378 55.76 132.482 55.336 132.482 54.88C132.482 54.416 132.378 53.992 132.17 53.608C131.962 53.224 131.686 52.92 131.342 52.696C130.998 52.472 130.618 52.36 130.202 52.36C129.786 52.36 129.406 52.476 129.062 52.708C128.726 52.94 128.454 53.248 128.246 53.632C128.038 54.008 127.934 54.432 127.934 54.904ZM145.415 58H144.599V54.508C144.599 53.78 144.483 53.244 144.251 52.9C144.019 52.556 143.675 52.384 143.219 52.384C142.747 52.384 142.323 52.552 141.947 52.888C141.579 53.224 141.319 53.656 141.167 54.184V58H140.351V54.508C140.351 53.772 140.239 53.236 140.015 52.9C139.791 52.556 139.447 52.384 138.983 52.384C138.519 52.384 138.099 52.548 137.723 52.876C137.347 53.204 137.083 53.636 136.931 54.172V58H136.115V51.748H136.859V53.164C137.123 52.676 137.459 52.3 137.867 52.036C138.283 51.772 138.743 51.64 139.247 51.64C139.767 51.64 140.187 51.788 140.507 52.084C140.827 52.38 141.023 52.768 141.095 53.248C141.383 52.72 141.727 52.32 142.127 52.048C142.535 51.776 142.995 51.64 143.507 51.64C143.859 51.64 144.155 51.704 144.395 51.832C144.643 51.96 144.839 52.144 144.983 52.384C145.135 52.616 145.243 52.9 145.307 53.236C145.379 53.564 145.415 53.932 145.415 54.34V58ZM151.774 58.12C151.254 58.12 150.786 57.984 150.37 57.712C149.962 57.44 149.638 57.104 149.398 56.704V60.556H148.582V51.748H149.314V52.96C149.562 52.568 149.894 52.252 150.31 52.012C150.726 51.764 151.17 51.64 151.642 51.64C152.074 51.64 152.47 51.732 152.83 51.916C153.19 52.092 153.502 52.332 153.766 52.636C154.03 52.94 154.234 53.288 154.378 53.68C154.53 54.064 154.606 54.464 154.606 54.88C154.606 55.464 154.486 56.004 154.246 56.5C154.014 56.988 153.686 57.38 153.262 57.676C152.838 57.972 152.342 58.12 151.774 58.12ZM151.546 57.4C151.89 57.4 152.198 57.332 152.47 57.196C152.742 57.052 152.974 56.86 153.166 56.62C153.366 56.38 153.518 56.112 153.622 55.816C153.726 55.512 153.778 55.2 153.778 54.88C153.778 54.544 153.718 54.224 153.598 53.92C153.486 53.616 153.322 53.348 153.106 53.116C152.89 52.884 152.642 52.7 152.362 52.564C152.082 52.428 151.778 52.36 151.45 52.36C151.242 52.36 151.026 52.4 150.802 52.48C150.578 52.56 150.362 52.676 150.154 52.828C149.954 52.972 149.786 53.136 149.65 53.32C149.514 53.504 149.43 53.7 149.398 53.908V55.828C149.526 56.124 149.698 56.392 149.914 56.632C150.13 56.864 150.378 57.052 150.658 57.196C150.946 57.332 151.242 57.4 151.546 57.4ZM157.464 49.24H158.28V56.584C158.28 56.896 158.336 57.1 158.448 57.196C158.56 57.292 158.696 57.34 158.856 57.34C159 57.34 159.144 57.324 159.288 57.292C159.432 57.26 159.556 57.228 159.66 57.196L159.804 57.856C159.652 57.92 159.464 57.972 159.24 58.012C159.024 58.052 158.836 58.072 158.676 58.072C158.308 58.072 158.012 57.964 157.788 57.748C157.572 57.532 157.464 57.236 157.464 56.86V49.24ZM164.838 58.12C164.39 58.12 163.974 58.036 163.59 57.868C163.206 57.692 162.874 57.456 162.594 57.16C162.314 56.856 162.094 56.508 161.934 56.116C161.782 55.724 161.706 55.304 161.706 54.856C161.706 54.272 161.838 53.736 162.102 53.248C162.374 52.76 162.746 52.372 163.218 52.084C163.69 51.788 164.226 51.64 164.826 51.64C165.442 51.64 165.978 51.788 166.434 52.084C166.898 52.38 167.262 52.772 167.526 53.26C167.79 53.74 167.922 54.268 167.922 54.844C167.922 54.908 167.922 54.972 167.922 55.036C167.922 55.092 167.918 55.136 167.91 55.168H162.558C162.598 55.616 162.722 56.016 162.93 56.368C163.146 56.712 163.422 56.988 163.758 57.196C164.102 57.396 164.474 57.496 164.874 57.496C165.282 57.496 165.666 57.392 166.026 57.184C166.394 56.976 166.65 56.704 166.794 56.368L167.502 56.56C167.374 56.856 167.178 57.124 166.914 57.364C166.65 57.604 166.338 57.792 165.978 57.928C165.626 58.056 165.246 58.12 164.838 58.12ZM162.534 54.58H167.154C167.122 54.124 166.998 53.724 166.782 53.38C166.574 53.036 166.298 52.768 165.954 52.576C165.618 52.376 165.246 52.276 164.838 52.276C164.43 52.276 164.058 52.376 163.722 52.576C163.386 52.768 163.11 53.04 162.894 53.392C162.686 53.736 162.566 54.132 162.534 54.58ZM170.578 51.748L172.414 54.196L172.51 54.376L172.606 54.196L174.43 51.748H175.354L172.978 54.892L175.354 58H174.43L172.606 55.564L172.51 55.396L172.414 55.564L170.59 58H169.666L172.03 54.892L169.666 51.748H170.578Z" fill="white"/>
</svg>
